<?xml version="1.0" encoding="utf-8"?>
<!-- Generator: Adobe Illustrator 15.0.2, SVG Export Plug-In . SVG Version: 6.00 Build 0)  -->
<!DOCTYPE svg PUBLIC "-//W3C//DTD SVG 1.1//EN" "http://www.w3.org/Graphics/SVG/1.1/DTD/svg11.dtd">
<svg version="1.1" id="Layer_1" xmlns="http://www.w3.org/2000/svg" xmlns:xlink="http://www.w3.org/1999/xlink" x="0px" y="0px"
	 width="100px" height="100px" viewBox="0 0 100 100" enable-background="new 0 0 100 100" xml:space="preserve">
<g>
	<path fill="#FFFFFF" d="M50.558,67.596c-16.582,0-30.073-13.49-30.073-30.066c0-16.582,13.491-30.072,30.073-30.072
		c16.581,0,30.071,13.49,30.071,30.072C80.629,54.105,67.139,67.596,50.558,67.596z M50.558,10.062
		c-15.146,0-27.467,12.322-27.467,27.467c0,15.141,12.322,27.461,27.467,27.461s27.466-12.32,27.466-27.461
		C78.023,22.384,65.703,10.062,50.558,10.062z"/>
	<rect x="49.255" y="8.76" fill="#FFFFFF" width="2.604" height="57.504"/>
	<path fill="#FFFFFF" d="M65.107,61.553c-6.979,0-16.75-5.746-24.895-14.634c-5.325-5.812-9.315-12.235-11.235-18.084
		c-2.033-6.193-1.519-11.1,1.447-13.816c1.519-1.392,3.546-2.097,6.024-2.097c6.979,0,16.751,5.746,24.896,14.639
		c5.326,5.812,9.314,12.235,11.236,18.085c2.033,6.187,1.52,11.093-1.447,13.809C69.613,60.846,67.586,61.553,65.107,61.553z
		 M36.448,15.527c-1.806,0-3.241,0.475-4.265,1.413c-2.135,1.956-2.401,5.995-0.73,11.083c1.808,5.505,5.6,11.592,10.68,17.138
		c7.556,8.244,16.789,13.787,22.974,13.787c1.807,0,3.24-0.476,4.266-1.413c2.135-1.955,2.402-5.994,0.73-11.075
		c-1.807-5.506-5.602-11.593-10.682-17.138C51.865,21.07,42.634,15.527,36.448,15.527z"/>
	<g>
		<path fill="#FFFFFF" d="M29.846,92.514V75.295h3.477v6.777h6.812v-6.777h3.477v17.219h-3.477v-7.529h-6.812v7.529H29.846z"/>
		<path fill="#FFFFFF" d="M54.466,84.385v1.992h-7.523c0.082-0.754,0.326-1.467,0.733-2.141s1.212-1.568,2.412-2.684
			c0.965-0.9,1.56-1.512,1.779-1.832c0.295-0.443,0.442-0.881,0.442-1.312c0-0.479-0.128-0.846-0.386-1.104
			c-0.257-0.258-0.613-0.385-1.065-0.385c-0.448,0-0.804,0.135-1.068,0.404c-0.264,0.27-0.417,0.717-0.457,1.344l-2.139-0.215
			c0.128-1.18,0.527-2.027,1.199-2.541s1.512-0.771,2.519-0.771c1.105,0,1.973,0.297,2.605,0.893s0.948,1.336,0.948,2.223
			c0,0.504-0.091,0.982-0.272,1.438c-0.18,0.457-0.467,0.934-0.859,1.432c-0.26,0.33-0.729,0.807-1.406,1.428
			s-1.105,1.033-1.287,1.236c-0.18,0.203-0.327,0.402-0.438,0.596H54.466z"/>
		<path fill="#FFFFFF" d="M57.533,84.01c0-1.754,0.264-3.225,0.787-4.416c0.393-0.877,0.928-1.664,1.604-2.361
			c0.678-0.697,1.418-1.215,2.225-1.549C63.221,75.227,64.459,75,65.861,75c2.537,0,4.568,0.789,6.092,2.361
			c1.523,1.574,2.283,3.764,2.283,6.566c0,2.779-0.756,4.955-2.268,6.525s-3.531,2.355-6.061,2.355
			c-2.561,0-4.596-0.781-6.107-2.344S57.533,86.752,57.533,84.01z M61.115,83.893c0,1.949,0.451,3.428,1.35,4.436
			c0.902,1.006,2.045,1.508,3.432,1.508s2.525-0.498,3.414-1.498c0.889-0.998,1.332-2.496,1.332-4.492
			c0-1.975-0.432-3.445-1.297-4.416s-2.016-1.457-3.449-1.457s-2.588,0.49-3.465,1.475C61.553,80.43,61.115,81.912,61.115,83.893z"
			/>
	</g>
</g>
</svg>
